<svg width="193" height="46" viewBox="0 0 193 46" fill="none" xmlns="http://www.w3.org/2000/svg">
<g clip-path="url(#clip0_2901_1119)">
<path d="M80.1701 8.97647L84.3029 4.08892H81.4722L81.7128 2.88477H86.4542L86.2844 3.76311L82.1374 8.63644H85.4068L85.1663 9.84065H80.0002L80.1701 8.97641V8.97647Z" fill="#1D1D1B"/>
<path d="M91.7759 9.84077H90.5445L90.6011 8.84907H90.5445C89.851 9.4724 89.0584 10.0107 88.2233 10.0107C87.0627 10.0107 86.5674 9.35912 86.5674 8.25403C86.5674 7.92822 86.6098 7.6307 86.6806 7.2765L87.5581 2.88482H89.0725L88.2375 7.07821C88.1667 7.40401 88.1243 7.60231 88.1243 7.81482C88.1243 8.40982 88.4073 8.7074 88.9877 8.7074C89.4547 8.7074 90.0067 8.36737 90.7003 7.63064L91.6344 2.88477H93.1488L91.7759 9.84071V9.84077Z" fill="#1D1D1B"/>
<path d="M94.3233 7.94237C94.7763 8.53736 95.3424 8.87739 95.9651 8.87739C96.6162 8.87739 97.1823 8.48069 97.1823 7.97071C97.1823 7.53156 96.8143 7.29065 95.9368 6.80906C95.0168 6.29907 94.4507 5.71819 94.4507 4.88235C94.4507 3.62153 95.5971 2.71484 96.9842 2.71484C97.89 2.71484 98.626 3.13988 99.1638 3.70653L98.3146 4.51404C97.9607 4.15979 97.5361 3.86232 96.9842 3.86232C96.3473 3.86232 95.8802 4.25897 95.8802 4.74067C95.8802 5.25066 96.4746 5.49151 97.0691 5.83154C98.1023 6.38397 98.6118 6.93651 98.6118 7.78652C98.6118 9.13235 97.4513 10.0107 95.8519 10.0107C94.9744 10.0107 93.9411 9.47238 93.4175 8.67904L94.3233 7.94237Z" fill="#1D1D1B"/>
<path d="M103.58 2.71484C104.259 2.71484 104.867 3.09732 105.179 3.69237H105.207L105.504 2.88491H106.722L105.335 9.84086H104.089L104.16 8.8775H104.117C103.466 9.55756 102.617 10.0108 101.825 10.0108C100.607 10.0108 99.843 9.10413 99.843 7.47495C99.843 4.81157 101.655 2.7149 103.58 2.7149L103.58 2.71484ZM104.273 7.58823L104.839 4.81151C104.528 4.21652 104.089 3.9615 103.664 3.9615C102.49 3.9615 101.414 5.47734 101.414 7.26243C101.414 8.2824 101.81 8.7641 102.447 8.7641C103.042 8.7641 103.707 8.42408 104.273 7.58823Z" fill="#1D1D1B"/>
<path d="M108.745 2.88486H109.977L109.906 3.86238H109.963C110.67 3.23905 111.477 2.71484 112.227 2.71484C113.303 2.71484 113.699 3.25316 113.841 4.004C114.662 3.22483 115.497 2.71484 116.247 2.71484C117.393 2.71484 117.889 3.35234 117.889 4.47154C117.889 4.7974 117.846 5.08076 117.775 5.44912L116.898 9.8408H115.369L116.218 5.64741C116.289 5.32155 116.332 5.1232 116.332 4.91068C116.332 4.31569 116.049 4.01823 115.482 4.01823C115.129 4.01823 114.534 4.34403 113.827 5.09487L112.878 9.8408H111.364L112.199 5.64741C112.27 5.32155 112.312 5.1232 112.312 4.91068C112.312 4.31569 112.029 4.01823 111.477 4.01823C111.109 4.01823 110.515 4.34403 109.821 5.09487L108.887 9.8408H107.358L108.745 2.88486H108.745Z" fill="#1D1D1B"/>
<path d="M120.252 2.88486H121.483L121.412 3.86238H121.469C122.177 3.23905 122.983 2.71484 123.734 2.71484C124.809 2.71484 125.205 3.25316 125.347 4.004C126.168 3.22483 127.003 2.71484 127.753 2.71484C128.9 2.71484 129.395 3.35234 129.395 4.47154C129.395 4.7974 129.352 5.08076 129.282 5.44912L128.404 9.8408H126.876L127.725 5.64741C127.796 5.32155 127.838 5.1232 127.838 4.91068C127.838 4.31569 127.555 4.01823 126.989 4.01823C126.635 4.01823 126.041 4.34403 125.333 5.09487L124.385 9.8408H122.87L123.705 5.64741C123.776 5.32155 123.818 5.1232 123.818 4.91068C123.818 4.31569 123.535 4.01823 122.983 4.01823C122.615 4.01823 122.021 4.34403 121.327 5.09487L120.393 9.8408H118.865L120.252 2.88486H120.252Z" fill="#1D1D1B"/>
<path d="M134.32 2.71484C135.934 2.71484 136.528 3.83404 136.528 5.27905C136.528 5.88826 136.33 6.52576 136.231 6.75239H131.999C131.843 8.22573 132.664 8.84911 133.711 8.84911C134.207 8.84911 134.745 8.57998 135.127 8.29668L135.693 9.2742C135.127 9.6709 134.306 10.0108 133.315 10.0108C131.659 10.0108 130.527 8.93417 130.527 7.06414C130.527 4.4716 132.494 2.7149 134.32 2.7149L134.32 2.71484ZM135.198 5.78903C135.24 5.60491 135.268 5.40656 135.268 5.17987C135.268 4.49982 134.985 3.89072 134.136 3.89072C133.301 3.89072 132.466 4.59899 132.126 5.78903H135.198Z" fill="#1D1D1B"/>
<path d="M138.665 2.88486H139.896L139.825 3.86238H139.882C140.618 3.23905 141.396 2.71484 142.274 2.71484C143.435 2.71484 143.916 3.35234 143.916 4.47154C143.916 4.7974 143.887 5.08076 143.803 5.44912L142.925 9.8408H141.411L142.26 5.64741C142.316 5.32155 142.373 5.1232 142.373 4.91068C142.373 4.31569 142.09 4.01823 141.496 4.01823C141.014 4.01823 140.477 4.34403 139.741 5.09487L138.806 9.8408H137.278L138.665 2.88486Z" fill="#1D1D1B"/>
<path d="M144.92 9.13244C144.92 8.53745 145.416 7.91406 146.095 7.91406C146.605 7.91406 146.916 8.29665 146.916 8.80664C146.916 9.41579 146.449 10.0108 145.755 10.0108C145.246 10.0108 144.92 9.64254 144.92 9.13244Z" fill="#1D1D1B"/>
<path d="M148.699 9.13244C148.699 8.53745 149.195 7.91406 149.874 7.91406C150.384 7.91406 150.695 8.29665 150.695 8.80664C150.695 9.41579 150.228 10.0108 149.535 10.0108C149.025 10.0108 148.699 9.64254 148.699 9.13244Z" fill="#1D1D1B"/>
<path d="M152.478 9.13244C152.478 8.53745 152.974 7.91406 153.653 7.91406C154.163 7.91406 154.474 8.29665 154.474 8.80664C154.474 9.41579 154.007 10.0108 153.313 10.0108C152.804 10.0108 152.478 9.64254 152.478 9.13244Z" fill="#1D1D1B"/>
<path fill-rule="evenodd" clip-rule="evenodd" d="M33.2332 3.38509C33.2332 4.97086 32.093 6.25791 30.6882 6.25791C29.2833 6.25791 28.1433 4.9708 28.1433 3.38509C28.1433 1.79937 29.2835 0.512207 30.6882 0.512207C32.0929 0.512207 33.2332 1.79932 33.2332 3.38509Z" fill="#745BA3"/>
<path fill-rule="evenodd" clip-rule="evenodd" d="M29.2727 7.08972L36.337 8.1774L41.7919 5.75055L40.2827 10.496L33.6768 12.2996L40.5 14.8357L44.063 22.7984L39.6815 22.778L37.1933 18.9118L32.7663 18.1139L29.1792 21.8984L24.2545 22.9372L20.855 20.41L27.5905 16.1688L26.6396 11.8175L20.5921 10.5724L18.6028 5.51709L23.3579 7.32727L29.2727 7.08972Z" fill="#745BA3"/>
<path fill-rule="evenodd" clip-rule="evenodd" d="M17.1589 10.4808C16.621 12.0529 15.1092 12.9605 13.7845 12.5064C12.4599 12.0522 11.8213 10.4076 12.3593 8.8353C12.8973 7.26318 14.409 6.35582 15.7336 6.80993C17.0585 7.26409 17.6969 8.90853 17.1589 10.4809V10.4808Z" fill="#744363"/>
<path fill-rule="evenodd" clip-rule="evenodd" d="M10.2906 12.1494L16.0731 13.4522L17.4068 17.1698L22.0277 16.3758L19.3899 21.8502L16.6197 22.5521L16.2931 23.4691L23.4071 27.8726L17.1694 38.973L14.7138 34.4025L16.2163 30.1639L13.9935 29.0063L7.73861 30.858L0 28.3647L9.53208 24.8974L9.38326 22.2823L5.88995 20.5935L10.2906 12.1494Z" fill="#744363"/>
<path fill-rule="evenodd" clip-rule="evenodd" d="M37.2825 25.9412C37.1121 27.188 35.5794 28.0095 33.8612 27.7741C32.1432 27.539 30.8871 26.3361 31.0575 25.0889C31.2278 23.842 32.7604 23.0208 34.4786 23.256C36.1967 23.4914 37.4529 24.6943 37.2825 25.9412Z" fill="#CB5089"/>
<path fill-rule="evenodd" clip-rule="evenodd" d="M44.0632 25.1919L47.7027 27.5069L39.6786 32.1143L40.56 33.9397L45.6261 36.7684L44.3703 44.4395L40.1504 44.0244L40.6528 38.6236L36.0138 37.6842L30.3603 45.4999L27.8787 41.5421L31.1221 36.5203L32.0326 33.7454L26.7281 31.9927L23.6582 27.9405L35.6152 29.0597L44.0632 25.1919Z" fill="#CB5089"/>
<path fill-rule="evenodd" clip-rule="evenodd" d="M60.9266 19.9646C61.3067 21.4589 60.6644 22.9142 59.4928 23.2129C58.3212 23.5116 57.0617 22.541 56.6815 21.0466C56.3012 19.5521 56.9435 18.0968 58.1152 17.7981C59.2869 17.4996 60.5463 18.4701 60.9266 19.9646Z" fill="#00914C"/>
<path fill-rule="evenodd" clip-rule="evenodd" d="M55.9574 23.5749L70.6553 23.5532L67.3084 26.4501L62.8052 28.3751L62.5178 31.7625L67.8838 33.8461L66.9609 38.151L62.5929 41.6112L62.6124 36.7489L58.8805 35.4212L50.2309 41.6583L45.386 40.8468L54.8538 33.1881L55.3763 28.3368L52.9534 29.3192L54.8335 33.1137L49.7677 31.4102L48.1497 27.6277L55.9574 23.5749Z" fill="#00914C"/>
<path fill-rule="evenodd" clip-rule="evenodd" d="M51.1077 1.20451C52.2608 2.21116 52.4135 3.92689 51.4485 5.03443C50.4833 6.14196 48.7642 6.22367 47.6112 5.21718C46.4583 4.21053 46.3057 2.49463 47.2706 1.38715C48.2358 0.279786 49.9547 0.197909 51.1077 1.20456V1.20451Z" fill="#E98600"/>
<path fill-rule="evenodd" clip-rule="evenodd" d="M56.0784 3.89307L61.6701 4.4855L59.6775 9.59376L65.0974 10.5552L68.1135 19.3092L63.0881 18.5302L60.0216 14.3316L54.2876 16.8602L50.5199 22.0682L45.4178 24.182L48.4791 16.7405L52.486 10.6987L47.335 12.2462L43.1699 10.3602L56.0784 3.89307Z" fill="#E98600"/>
<path d="M74.3631 27.3415C73.1493 27.3415 72.3402 27.1632 71.272 26.4343L72.1621 24.7818C72.6638 25.3977 73.6187 25.8025 74.4763 25.6405C75.3988 25.4621 75.2369 24.3284 74.5896 24.0206C73.2303 23.3726 71.6118 22.9839 71.6118 21.3639C71.6118 19.5659 73.0359 18.8046 74.6381 18.7883C75.6577 18.7721 76.4992 18.9178 77.2437 19.5173L76.4021 20.9914C76.1108 20.5864 75.4311 20.2786 74.8324 20.3109C73.7319 20.3597 73.5377 21.2991 74.2658 21.6879C75.3502 22.2549 77.4865 22.7732 77.4865 24.6197C77.4865 26.515 75.9813 27.3414 74.363 27.3414L74.3631 27.3415Z" fill="#1D1D1B"/>
<path d="M83.0859 27.3086C80.5776 27.3086 79.3477 25.6239 79.3477 22.9512C79.3477 20.2946 81.0469 18.7881 83.0698 18.7881C84.397 18.7881 85.7239 19.3551 86.1608 20.6833L84.6235 21.4446C84.5749 21.1208 84.0408 20.4242 83.345 20.4242C82.0178 20.4242 81.7104 21.3799 81.7104 22.9997C81.7104 24.7007 82.3253 25.5917 83.3287 25.608C84.0732 25.6239 84.5911 25.2677 84.8338 24.6522L86.2417 25.5594C85.7078 26.8066 84.3806 27.3086 83.0859 27.3086Z" fill="#1D1D1B"/>
<path d="M92.7634 27.1147V21.5261C92.7634 20.8133 92.4073 20.5217 91.8894 20.538C90.9669 20.5704 90.4814 21.1373 90.4814 22.0282V27.1147H88.248V15.6782H90.4814V19.7766C91.2259 19.1286 91.8246 18.8209 92.8929 18.8209C94.2523 18.8209 94.9967 19.6632 94.9967 21.0725V27.1147H92.7634Z" fill="#1D1D1B"/>
<path d="M102.425 27.1145L102.295 26.3371C101.551 26.9848 100.952 27.2928 99.8839 27.2928C98.5245 27.2928 97.78 26.4505 97.78 25.025V19.0151H100.014V24.5875C100.014 25.3001 100.354 25.5919 100.888 25.5755C101.81 25.5596 102.295 24.9601 102.295 24.0692V19.0151H104.529V27.1145H102.425Z" fill="#1D1D1B"/>
<path d="M109.06 27.2282C107.992 27.147 107.361 26.3695 107.361 25.0897V15.6782H109.578V24.6685C109.578 25.106 109.772 25.4623 110.063 25.5757C110.323 25.6892 110.662 25.6569 110.905 25.5272V27.0176C110.452 27.2282 109.562 27.2768 109.06 27.2282Z" fill="#1D1D1B"/>
<path d="M114.853 23.7289C114.853 25.0088 115.662 25.6728 116.585 25.6568C117.637 25.6242 118.009 25.3328 118.543 24.7659L119.563 26.0454C118.689 26.9363 117.637 27.3901 115.954 27.3575C113.704 27.309 112.361 25.3003 112.329 23.1621C112.28 20.8942 113.413 18.8047 116.31 18.8047C119.158 18.8047 119.983 21.8825 119.741 23.7289H114.853ZM116.213 20.4083C115.144 20.4244 114.821 21.1858 114.821 22.3522H117.411C117.411 21.2668 117.281 20.3758 116.213 20.4083Z" fill="#1D1D1B"/>
<path d="M130.724 27.1148L130.61 26.4344C130.044 27.0662 129.655 27.309 128.814 27.309C126.5 27.309 125.674 25.1546 125.674 23.0812C125.674 20.9753 126.531 18.7884 128.846 18.7884C129.704 18.7884 130.221 19.0639 130.642 19.6632V15.6782H132.876V27.1147H130.724V27.1148ZM130.642 21.7043C130.642 20.8297 130.286 20.4732 129.412 20.457C128.247 20.4407 128.037 21.8826 128.053 23.2271C128.069 24.5069 128.377 25.6407 129.542 25.5921C130.221 25.5598 130.642 25.0897 130.642 24.28V21.7043Z" fill="#1D1D1B"/>
<path d="M135.74 27.1146V19.0152H137.973V27.1309L135.74 27.1146ZM136.905 18.1241C136.29 18.1241 135.788 17.6058 135.788 16.9902C135.788 16.3746 136.29 15.8564 136.905 15.8564C137.52 15.8564 138.038 16.3747 138.038 16.9902C138.038 17.6057 137.52 18.1241 136.905 18.1241Z" fill="#1D1D1B"/>
<path d="M142.942 23.7289C142.942 25.0088 143.751 25.6728 144.673 25.6568C145.725 25.6242 146.097 25.3328 146.632 24.7659L147.651 26.0454C146.777 26.9363 145.725 27.3901 144.042 27.3575C141.793 27.309 140.449 25.3003 140.417 23.1621C140.368 20.8942 141.501 18.8047 144.398 18.8047C147.246 18.8047 148.072 21.8825 147.829 23.7289H142.942ZM144.301 20.4083C143.233 20.4244 142.909 21.1858 142.909 22.3522H145.498C145.498 21.2668 145.369 20.3758 144.301 20.4083Z" fill="#1D1D1B"/>
<path d="M152.862 27.3416C151.826 27.3416 150.321 26.9364 150.321 25.3652V20.6027H149.333V19.3716C149.949 19.1935 150.11 19.0476 150.531 18.5942C151.001 18.092 151.13 17.7031 151.308 17.0552H152.538V19.0315H154.334V20.5704H152.538V24.4257C152.538 25.5921 153.282 25.6892 153.736 25.6892C154.285 25.6892 154.48 25.4949 154.625 25.4301V26.9364C154.059 27.147 153.638 27.3416 152.862 27.3416Z" fill="#1D1D1B"/>
<path d="M158.445 27.2282C157.377 27.147 156.746 26.3695 156.746 25.0897V15.6782H158.963V24.6685C158.963 25.106 159.157 25.4623 159.448 25.5757C159.707 25.6892 160.047 25.6569 160.29 25.5272V27.0176C159.836 27.2282 158.946 27.2768 158.445 27.2282Z" fill="#1D1D1B"/>
<path d="M162.248 27.1146V19.0152H164.481V27.1309L162.248 27.1146ZM163.413 18.1241C162.798 18.1241 162.296 17.6058 162.296 16.9902C162.296 16.3746 162.798 15.8564 163.413 15.8564C164.028 15.8564 164.546 16.3747 164.546 16.9902C164.546 17.6057 164.028 18.1241 163.413 18.1241Z" fill="#1D1D1B"/>
<path d="M172.055 27.147L170.372 23.47L169.611 24.2637V27.1147H167.378V15.6782H169.611V22.0121L172.103 18.999H174.417L171.974 21.8501L174.709 27.1147L172.055 27.147V27.147Z" fill="#1D1D1B"/>
<path d="M180.131 27.3902C177.298 27.4061 176.36 25.2681 176.36 23.0326C176.36 20.8133 177.509 18.837 180.147 18.8209C182.817 18.8048 183.917 20.8133 183.917 23.0326C183.917 25.2519 182.994 27.3575 180.131 27.3902ZM180.147 20.3275C179.143 20.3112 178.658 21.348 178.674 22.968C178.69 24.7498 179.03 25.7705 180.131 25.7705C181.166 25.7705 181.554 24.7012 181.571 22.968C181.571 21.3804 181.085 20.3436 180.147 20.3275Z" fill="#1D1D1B"/>
<path d="M190.746 27.1147V21.526C190.746 20.8132 190.391 20.5216 189.873 20.538C188.95 20.5704 188.464 21.1373 188.464 22.0282V27.1147H186.231V19.0153H188.335L188.464 19.7928C189.209 19.1449 189.808 18.8369 190.876 18.8369C192.235 18.8369 192.98 19.6631 192.98 21.0724V27.1146H190.746V27.1147Z" fill="#1D1D1B"/>
</g>
<defs>
<clipPath id="clip0_2901_1119">
<rect width="193" height="45" fill="white" transform="translate(0 0.5)"/>
</clipPath>
</defs>
</svg>
